<svg width="139" height="22" viewBox="0 0 139 22" fill="none" xmlns="http://www.w3.org/2000/svg">
<path d="M14.7 8.9C16.56 8.9 18.21 9.71 19.35 11C20.37 12.11 21 13.58 21 15.2C21 18.68 18.18 21.5 14.7 21.5H6.3C3.18 21.5 0.6 19.22 0.09 16.25C0.06 15.92 0 15.56 0 15.2H4.2C4.2 16.37 5.13 17.3 6.3 17.3H14.7C15.84 17.3 16.8 16.37 16.8 15.2C16.8 14.06 15.84 13.1 14.7 13.1H6.3C4.44 13.1 2.79 12.29 1.65 11C0.63 9.89 0 8.42 0 6.8C0 3.32 2.82 0.499999 6.3 0.499999H14.7C18.18 0.499999 21 3.32 21 6.8H16.8C16.8 5.66 15.84 4.7 14.7 4.7H6.3C5.13 4.7 4.2 5.66 4.2 6.8C4.2 7.97 5.13 8.9 6.3 8.9H14.7ZM14.7 19.82C17.25 19.82 19.32 17.75 19.32 15.2C19.32 14.09 18.9 12.98 18.12 12.14C17.22 11.12 15.99 10.58 14.7 10.58H6.3C4.2 10.58 2.52 8.9 2.52 6.8C2.52 4.73 4.2 3.02 6.3 3.02H14.7C16.17 3.02 17.46 3.89 18.09 5.12H18.99C18.33 3.41 16.65 2.18 14.7 2.18H6.3C3.75 2.18 1.68 4.25 1.68 6.8C1.68 7.91 2.1 9.02 2.88 9.89C3.78 10.88 4.98 11.42 6.3 11.42H14.7C16.77 11.42 18.48 13.13 18.48 15.2C18.48 17.3 16.77 18.98 14.7 18.98H6.3C4.83 18.98 3.54 18.14 2.91 16.88H2.01C2.7 18.62 4.38 19.82 6.3 19.82H14.7ZM25.1953 0.499999H29.3953V21.5H25.1953V0.499999ZM27.7153 19.82V2.18H26.8753V19.82H27.7153ZM52.5035 0.499999H56.7035V21.5H52.5035V8.06L45.1535 19.16L37.8035 8.06V21.5H33.6035V0.499999H37.8035L45.1535 11.6L52.5035 0.499999ZM55.0235 19.82V2.18H53.4035L45.1535 14.63L36.9035 2.18H35.2835V19.82H36.1235V3.02H36.4835L45.1535 16.1L53.8235 3.02H54.1835V19.82H55.0235ZM75.6082 0.499999C79.0882 0.499999 81.9082 3.32 81.9082 6.8C81.9082 10.28 79.0882 13.1 75.6082 13.1H70.3582L67.2082 8.9H75.6082C76.7482 8.9 77.7082 7.97 77.7082 6.8C77.7082 5.66 76.7482 4.7 75.6082 4.7H65.1082V21.5H60.9082V0.499999H75.6082ZM75.6082 11.42C78.1582 11.42 80.2282 9.35 80.2282 6.8C80.2282 4.25 78.1582 2.18 75.6082 2.18H62.5882V19.82H63.4282V3.02H75.6082C77.6782 3.02 79.3882 4.73 79.3882 6.8C79.3882 8.9 77.6782 10.58 75.6082 10.58H70.5682L71.1982 11.42H75.6082ZM90.3035 17.3H105.004V21.5H86.1035V0.499999H90.3035V17.3ZM103.324 19.82V18.98H88.6235V2.18H87.7835V19.82H103.324ZM109.189 0.499999H113.389V21.5H109.189V0.499999ZM111.709 19.82V2.18H110.869V19.82H111.709ZM138.598 0.499999V4.7L124.138 17.3H138.598V21.5H117.598V17.3L132.028 4.7H117.598V0.499999H138.598ZM136.918 3.95V2.18H119.278V3.02H136.078V3.41L119.278 18.05V19.82H136.918V18.98H120.118V18.59L136.918 3.95Z" fill="white"/>
</svg>
